<svg width="111" height="111" viewBox="0 0 111 111" fill="none" xmlns="http://www.w3.org/2000/svg">
<path d="M79.5995 5.40149C66.6395 -0.819965 51.2577 -1.72733 37.6739 2.99297C25.588 7.06277 15.1199 15.5793 8.46478 26.4343C3.0873 35.2144 0.221764 45.529 0.408569 55.827C0.388557 70.7218 6.86354 85.4864 17.802 95.5942C23.2795 92.5952 28.737 89.5563 34.2112 86.5573C35.3455 85.8434 36.7232 85.9968 37.9975 86.0102C38.9882 83.6884 38.8882 81.1131 39.1317 78.6512C39.2251 77.6104 39.472 76.5629 39.3052 75.5221C39.085 74.8783 38.5379 74.4279 38.0742 73.9609C34.1579 70.5049 30.6385 66.255 29.2808 61.1144C29.0806 60.2971 28.7804 59.4598 28.0198 59.0027C25.9382 57.5116 24.744 55.1431 23.8666 52.8046C23.2762 51.2101 23.0527 49.2552 24.1435 47.8175C24.9241 46.5832 26.3118 46.0061 27.6062 45.4757C27.5795 42.7803 27.3393 40.0615 27.7763 37.3861C28.4568 31.8552 30.8253 26.4577 34.9084 22.6014C36.1461 21.3371 37.7706 20.5198 38.8948 19.1421C41.0331 16.51 43.9654 14.4852 47.2346 13.5478C52.5787 12.0433 58.2331 12.8672 63.5305 14.1582C66.2526 14.7754 68.7745 16.1097 71.55 16.5C73.4714 16.7669 75.3863 15.9429 76.8507 14.742C77.7347 14.0748 78.542 13.2442 79.6062 12.8739C81.1073 12.4036 82.6251 14.0081 82.3883 15.4793C82.1715 17.1305 81.2174 18.5516 80.3768 19.9494C79.5461 21.1836 79.8797 22.7615 79.4093 24.1259C83.4958 30.0738 85.4573 37.673 83.8227 44.7885C83.8227 44.9653 83.8261 45.3155 83.8261 45.489C85.4206 46.4631 87.2954 47.644 87.3955 49.7323C87.4755 52.7379 86.2446 55.6969 84.4599 58.072C83.8227 59.0261 82.6985 59.3563 81.6511 59.6366C80.2366 65.1174 76.5538 69.6476 72.6208 73.5639C71.7568 74.5347 70.0288 75.2953 70.4625 76.8565C70.9262 79.8922 70.5826 83.0946 71.7668 85.9868C73.6282 86.0569 75.6765 85.6299 77.3478 86.674C82.7519 89.6396 88.1561 92.6019 93.5302 95.6209C102.564 87.2445 108.588 75.7389 110.383 63.5496C112.034 52.6979 110.346 41.3592 105.606 31.4549C100.225 20.1595 90.8882 10.799 79.5995 5.40149Z" fill="#B5D7FF"/>
<path d="M82.3881 15.4783C82.625 14.0072 81.1072 12.4027 79.606 12.873C78.5419 13.2433 77.7346 14.0739 76.8506 14.7411C75.3861 15.942 73.4713 16.766 71.5498 16.4991C68.7743 16.1088 66.2524 14.7745 63.5303 14.1573C58.2329 12.8663 52.5785 12.0424 47.2344 13.5469C43.9652 14.4842 41.033 16.5091 38.8947 19.1412C37.7705 20.5189 36.1459 21.3362 34.9083 22.6005C30.8251 26.4568 28.4567 31.8543 27.7761 37.3852C27.7861 41.5651 27.3992 45.8817 28.8636 49.8881C31.5323 48.0167 33.3004 44.7876 33.1069 41.495C33.0402 39.3133 32.5331 37.0383 33.3638 34.94C34.5914 31.9977 37.6437 29.8527 40.8595 29.8761C42.8444 29.8294 44.7592 30.4465 46.644 30.9936C49.4461 31.8343 52.285 32.6482 55.2206 32.8417C59.9475 33.2554 64.6678 32.358 69.218 31.1504C70.6825 30.7468 72.2437 30.0996 73.7615 30.6567C76.2634 31.3572 77.858 33.6557 78.7654 35.9574C79.7194 38.2292 79.6827 40.7845 79.1824 43.1596C78.8821 44.6741 78.5118 46.262 78.9488 47.7899C79.4692 49.4812 80.4467 51.0724 81.9111 52.1032C82.6417 49.6913 83.1688 47.2228 83.8226 44.7876C85.4572 37.6721 83.4957 30.0729 79.4092 24.125C79.8796 22.7606 79.546 21.1827 80.3766 19.9485C81.2172 18.5507 82.1713 17.1296 82.3881 15.4783Z" fill="#5FA5FA"/>
<path d="M46.6439 30.995C44.7591 30.4479 42.8443 29.8308 40.8594 29.8775C37.6436 29.8541 34.5913 31.9991 33.3637 34.9414C32.533 37.0397 33.0401 39.3148 33.1068 41.4964C33.3003 44.789 31.5322 48.0181 28.8635 49.8896C27.3991 45.8831 27.786 41.5665 27.776 37.3866C27.339 40.062 27.5792 42.7808 27.6059 45.4762C26.3116 46.0066 24.9238 46.5837 24.1432 47.818C23.0524 49.2557 23.2759 51.2106 23.8663 52.8052C24.7437 55.1436 25.9379 57.5121 28.0195 59.0032C28.7801 59.4603 29.0803 60.2976 29.2805 61.1149C30.6382 66.2555 34.1576 70.5054 38.0739 73.9614C38.5376 74.4285 39.0847 74.8788 39.3049 75.5226C39.4717 76.5634 39.2248 77.6109 39.1314 78.6517C38.8879 81.1136 38.988 83.6889 37.9972 86.0107C37.1032 86.818 35.9556 87.265 35.0216 88.0123C34.1409 89.2565 35.2918 90.6576 36.2459 91.4516C40.0388 94.4772 44.7991 95.9984 49.5194 96.8257C55.8076 97.8598 62.3693 97.0325 68.2472 94.5906C70.3855 93.6332 72.5571 92.5424 74.1751 90.8077C74.8589 90.0939 75.3893 88.923 74.7121 88.0323C73.7814 87.2784 72.6506 86.808 71.7665 85.9874C70.5823 83.0951 70.9259 79.8927 70.4622 76.857C70.0285 75.2958 71.7565 74.5352 72.6205 73.5645C76.5536 69.6481 80.2364 65.118 81.6508 59.6371C82.6983 59.3569 83.8225 59.0266 84.4596 58.0725C86.2444 55.6974 87.4753 52.7384 87.3952 49.7328C87.2952 47.6445 85.4204 46.4636 83.8258 45.4895C83.8258 45.316 83.8225 44.9658 83.8225 44.789C83.1687 47.2242 82.6416 49.6927 81.911 52.1046C80.4466 51.0738 79.4691 49.4826 78.9487 47.7913C78.5117 46.2634 78.882 44.6755 79.1823 43.161C79.6826 40.7859 79.7193 38.2306 78.7653 35.9588C77.8579 33.6571 76.2633 31.3586 73.7614 30.6581C72.2436 30.101 70.6824 30.7482 69.2179 31.1518C64.6677 32.3594 59.9474 33.2568 55.2205 32.8431C52.2849 32.6496 49.446 31.8357 46.6439 30.995Z" fill="#3B90FF"/>
<path d="M77.3478 86.6732C75.6765 85.629 73.6283 86.056 71.7669 85.986C72.6509 86.8066 73.7817 87.277 74.7125 88.0309C75.3896 88.9216 74.8592 90.0925 74.1754 90.8064C72.5575 92.541 70.3858 93.6318 68.2475 94.5893C62.3696 97.0311 55.8079 97.8584 49.5197 96.8243C44.7994 95.997 40.0391 94.4758 36.2462 91.4502C35.2921 90.6562 34.1412 89.2552 35.0219 88.0109C35.956 87.2636 37.1035 86.8166 37.9975 86.0093C36.7232 85.996 35.3455 85.8425 34.2113 86.5564C28.7371 89.5554 23.2795 92.5944 17.802 95.5934C25.7314 103.159 36.0093 108.183 46.8243 109.924C59.344 111.879 72.5441 109.604 83.4892 103.146C87.0686 100.974 90.5213 98.5423 93.5303 95.6201C88.1561 92.6011 82.752 89.6388 77.3478 86.6732Z" fill="#0747A6"/>
</svg>
