<?xml version="1.0" encoding="UTF-8"?>
<!DOCTYPE svg PUBLIC "-//W3C//DTD SVG 1.1//EN" "http://www.w3.org/Graphics/SVG/1.1/DTD/svg11.dtd">
<svg xmlns="http://www.w3.org/2000/svg" version="1.1" width="2103px" height="272px" style="shape-rendering:geometricPrecision; text-rendering:geometricPrecision; image-rendering:optimizeQuality; fill-rule:evenodd; clip-rule:evenodd" xmlns:xlink="http://www.w3.org/1999/xlink">
<g><path style="opacity:0.992" fill="#002d5c" d="M -0.5,-0.5 C 19.8333,-0.5 40.1667,-0.5 60.5,-0.5C 60.5,21.8333 60.5,44.1667 60.5,66.5C 113.167,66.5 165.833,66.5 218.5,66.5C 218.5,134.833 218.5,203.167 218.5,271.5C 145.5,271.5 72.5,271.5 -0.5,271.5C -0.5,180.833 -0.5,90.1667 -0.5,-0.5 Z M 60.5,140.5 C 92.8333,140.5 125.167,140.5 157.5,140.5C 157.5,160.167 157.5,179.833 157.5,199.5C 125.167,199.5 92.8333,199.5 60.5,199.5C 60.5,179.833 60.5,160.167 60.5,140.5 Z"/></g>
<g><path style="opacity:0.988" fill="#002d5c" d="M 523.5,-0.5 C 544.5,-0.5 565.5,-0.5 586.5,-0.5C 586.5,18.8333 586.5,38.1667 586.5,57.5C 565.5,57.5 544.5,57.5 523.5,57.5C 523.5,38.1667 523.5,18.8333 523.5,-0.5 Z"/></g>
<g><path style="opacity:0.987" fill="#002d5b" d="M 631.5,-0.5 C 652.5,-0.5 673.5,-0.5 694.5,-0.5C 694.5,67.8333 694.5,136.167 694.5,204.5C 726.5,204.5 758.5,204.5 790.5,204.5C 790.5,226.833 790.5,249.167 790.5,271.5C 737.5,271.5 684.5,271.5 631.5,271.5C 631.5,180.833 631.5,90.1667 631.5,-0.5 Z"/></g>
<g><path style="opacity:0.992" fill="#002d5c" d="M 977.5,-0.5 C 997.833,-0.5 1018.17,-0.5 1038.5,-0.5C 1038.5,90.1667 1038.5,180.833 1038.5,271.5C 965.5,271.5 892.5,271.5 819.5,271.5C 819.5,203.167 819.5,134.833 819.5,66.5C 872.167,66.5 924.833,66.5 977.5,66.5C 977.5,44.1667 977.5,21.8333 977.5,-0.5 Z M 880.5,140.5 C 912.833,140.5 945.167,140.5 977.5,140.5C 977.5,160.167 977.5,179.833 977.5,199.5C 945.167,199.5 912.833,199.5 880.5,199.5C 880.5,179.833 880.5,160.167 880.5,140.5 Z"/></g>
<g><path style="opacity:0.992" fill="#002d5c" d="M 1495.5,-0.5 C 1515.83,-0.5 1536.17,-0.5 1556.5,-0.5C 1556.5,90.1667 1556.5,180.833 1556.5,271.5C 1483.5,271.5 1410.5,271.5 1337.5,271.5C 1337.5,203.167 1337.5,134.833 1337.5,66.5C 1390.17,66.5 1442.83,66.5 1495.5,66.5C 1495.5,44.1667 1495.5,21.8333 1495.5,-0.5 Z M 1398.5,140.5 C 1430.83,140.5 1463.17,140.5 1495.5,140.5C 1495.5,160.167 1495.5,179.833 1495.5,199.5C 1463.17,199.5 1430.83,199.5 1398.5,199.5C 1398.5,179.833 1398.5,160.167 1398.5,140.5 Z"/></g>
<g><path style="opacity:0.983" fill="#002d5b" d="M 469.5,271.5 C 399.167,271.5 328.833,271.5 258.5,271.5C 258.5,203.167 258.5,134.833 258.5,66.5C 278.167,66.5 297.833,66.5 317.5,66.5C 317.5,111.833 317.5,157.167 317.5,202.5C 347.167,202.5 376.833,202.5 406.5,202.5C 406.5,157.167 406.5,111.833 406.5,66.5C 427.5,66.5 448.5,66.5 469.5,66.5C 469.5,134.833 469.5,203.167 469.5,271.5 Z"/></g>
<g><path style="opacity:0.983" fill="#002c5b" d="M 1301.5,271.5 C 1282.17,271.5 1262.83,271.5 1243.5,271.5C 1243.5,264.5 1243.5,257.5 1243.5,250.5C 1189.17,250.5 1134.83,250.5 1080.5,250.5C 1080.5,189.167 1080.5,127.833 1080.5,66.5C 1154.17,66.5 1227.83,66.5 1301.5,66.5C 1301.5,134.833 1301.5,203.167 1301.5,271.5 Z M 1141.5,128.5 C 1175.5,128.5 1209.5,128.5 1243.5,128.5C 1243.5,148.167 1243.5,167.833 1243.5,187.5C 1209.5,187.5 1175.5,187.5 1141.5,187.5C 1141.5,167.833 1141.5,148.167 1141.5,128.5 Z"/></g>
<g><path style="opacity:0.991" fill="#002d5b" d="M 1821.5,271.5 C 1744.5,271.5 1667.5,271.5 1590.5,271.5C 1590.5,203.167 1590.5,134.833 1590.5,66.5C 1667.5,66.5 1744.5,66.5 1821.5,66.5C 1821.5,134.833 1821.5,203.167 1821.5,271.5 Z M 1650.5,135.5 C 1687.17,135.5 1723.83,135.5 1760.5,135.5C 1760.5,157.5 1760.5,179.5 1760.5,201.5C 1723.83,201.5 1687.17,201.5 1650.5,201.5C 1650.5,179.5 1650.5,157.5 1650.5,135.5 Z"/></g>
<g><path style="opacity:0.985" fill="#002d5b" d="M 2102.5,66.5 C 2102.5,134.833 2102.5,203.167 2102.5,271.5C 2081.5,271.5 2060.5,271.5 2039.5,271.5C 2039.5,222.167 2039.5,172.833 2039.5,123.5C 2029.5,123.5 2019.5,123.5 2009.5,123.5C 2009.5,149.167 2009.5,174.833 2009.5,200.5C 1989.5,200.5 1969.5,200.5 1949.5,200.5C 1948.93,174.837 1948.59,149.171 1948.5,123.5C 1938.17,123.5 1927.83,123.5 1917.5,123.5C 1917.5,172.833 1917.5,222.167 1917.5,271.5C 1896.83,271.5 1876.17,271.5 1855.5,271.5C 1855.5,203.167 1855.5,134.833 1855.5,66.5C 1937.83,66.5 2020.17,66.5 2102.5,66.5 Z"/></g>
<g><path style="opacity:0.993" fill="#002d5c" d="M 585.5,271.5 C 564.833,271.5 544.167,271.5 523.5,271.5C 523.5,206.833 523.5,142.167 523.5,77.5C 544.167,77.5 564.833,77.5 585.5,77.5C 585.5,142.167 585.5,206.833 585.5,271.5 Z"/></g>
</svg>
