<svg width="50" height="50" viewBox="0 0 50 50" fill="none" xmlns="http://www.w3.org/2000/svg">
<path d="M3.57143 45.2381H47.619V15.4762H3.57143V45.2381ZM45.2381 0H4.7619C2.33485 0 0 2.3482 0 4.76191V11.9048C0 13.5138 0.762886 14.2857 2.38095 14.2857H47.619C49.2371 14.2857 50 13.5138 50 11.9048V4.76191C50 2.3482 47.6651 0 45.2381 0Z" fill="#FFE7BA"/>
<path d="M3.57143 45.2381H47.619V15.4762H3.57143V45.2381ZM45.2381 0H4.7619C2.33485 0 0 2.3482 0 4.76191V11.9048C0 13.5138 0.762886 14.2857 2.38095 14.2857H47.619C49.2371 14.2857 50 13.5138 50 11.9048V4.76191C50 2.3482 47.6651 0 45.2381 0Z" fill="url(#paint0_linear_720_17239)" fill-opacity="0.75"/>
<path d="M0 11.9045V45.2379C0 47.6637 2.33017 49.9998 4.7619 49.9998H45.2381C47.6696 49.9998 50 47.6637 50 45.2379V11.9045H0ZM11.9048 32.1426C11.1258 32.1426 10.7143 31.7346 10.7143 30.9521V26.1902H7.14286C6.35174 26.1902 5.95238 25.789 5.95238 24.9998V19.0474C5.95238 18.2291 6.35174 17.8569 7.14286 17.8569H30.9524C31.7726 17.8569 32.1429 18.2291 32.1429 19.0474V24.9998C32.1429 25.789 31.7726 26.1902 30.9524 26.1902H17.8571L13.0952 32.1426C12.8023 32.4056 12.2856 32.1426 11.9048 32.1426ZM44.0476 36.9045C44.0476 37.6937 43.6774 38.095 42.8571 38.095H39.2857V42.8569C39.2857 43.6303 38.941 44.0474 38.0952 44.0474C37.7437 44.0474 37.1978 44.3103 36.9048 44.0474L32.1429 38.095H19.0476C18.2565 38.095 17.8571 37.6937 17.8571 36.9045V30.9521C17.8571 30.1339 18.2565 29.7617 19.0476 29.7617H42.8571C43.6774 29.7617 44.0476 30.1339 44.0476 30.9521V36.9045ZM39.2857 8.3331H42.8571C43.6668 8.3331 44.0476 7.95035 44.0476 7.14262C44.0476 6.33489 43.6668 5.95215 42.8571 5.95215H39.2857C38.476 5.95215 38.0952 6.33489 38.0952 7.14262C38.0952 7.95035 38.476 8.3331 39.2857 8.3331ZM30.9524 8.3331H33.3333C34.143 8.3331 35.7143 7.95035 35.7143 7.14262C35.7143 6.33489 34.143 5.95215 33.3333 5.95215H30.9524C30.1427 5.95215 29.7619 6.33489 29.7619 7.14262C29.7619 7.95035 30.1427 8.3331 30.9524 8.3331ZM22.619 8.3331H25C25.8097 8.3331 26.1905 7.95035 26.1905 7.14262C26.1905 6.33489 25.8097 5.95215 25 5.95215H22.619C21.8094 5.95215 20.2381 6.33489 20.2381 7.14262C20.2381 7.95035 21.8094 8.3331 22.619 8.3331Z" fill="url(#paint1_linear_720_17239)"/>
<defs>
<linearGradient id="paint0_linear_720_17239" x1="7.68935" y1="-1.53834" x2="44.9934" y2="45.5987" gradientUnits="userSpaceOnUse">
<stop offset="0.359375" stop-color="white"/>
<stop offset="1" stop-color="#FFEFD1"/>
</linearGradient>
<linearGradient id="paint1_linear_720_17239" x1="-25" y1="27.976" x2="18.6961" y2="77.577" gradientUnits="userSpaceOnUse">
<stop stop-color="#F4AB00"/>
<stop offset="1" stop-color="#FC5457"/>
</linearGradient>
</defs>
</svg>
