<svg width="50" height="50" viewBox="0 0 50 50" fill="none" xmlns="http://www.w3.org/2000/svg">
<path d="M48.8095 0H28.5714C27.7618 0 26.1905 0.378166 26.1905 1.18127V18.9002C26.1905 19.7033 27.7618 21.2628 28.5714 21.2628H33.3333V22.444C33.3333 22.9477 34.0918 23.36 34.5238 23.6253C34.9572 23.8927 35.2649 23.8482 35.7143 23.6253L41.6667 21.2628H48.8095C49.6192 21.2628 50 19.7033 50 18.9002V1.18127C50 0.378166 49.6192 0 48.8095 0ZM21.4286 0H1.19048C0.380808 0 0 0.378166 0 1.18127V18.9002C0 19.7033 0.380808 21.2628 1.19048 21.2628H5.95238L10.7143 23.6253C11.165 23.8488 11.4725 23.8919 11.9048 23.6253C12.3368 23.36 13.0952 22.9477 13.0952 22.444V21.2628H21.4286C22.2382 21.2628 23.8095 19.7033 23.8095 18.9002V1.18127C23.8095 0.378166 22.2382 0 21.4286 0Z" fill="white"/>
<path d="M48.8095 0H28.5714C27.7618 0 26.1905 0.378166 26.1905 1.18127V18.9002C26.1905 19.7033 27.7618 21.2628 28.5714 21.2628H33.3333V22.444C33.3333 22.9477 34.0918 23.36 34.5238 23.6253C34.9572 23.8927 35.2649 23.8482 35.7143 23.6253L41.6667 21.2628H48.8095C49.6192 21.2628 50 19.7033 50 18.9002V1.18127C50 0.378166 49.6192 0 48.8095 0ZM21.4286 0H1.19048C0.380808 0 0 0.378166 0 1.18127V18.9002C0 19.7033 0.380808 21.2628 1.19048 21.2628H5.95238L10.7143 23.6253C11.165 23.8488 11.4725 23.8919 11.9048 23.6253C12.3368 23.36 13.0952 22.9477 13.0952 22.444V21.2628H21.4286C22.2382 21.2628 23.8095 19.7033 23.8095 18.9002V1.18127C23.8095 0.378166 22.2382 0 21.4286 0Z" fill="url(#paint0_linear_795_17712)"/>
<path d="M16.6666 32.1425C16.6666 28.8675 13.9375 26.1902 10.7142 26.1902C7.49092 26.1902 4.76181 28.8675 4.76181 32.1425C4.76181 35.4176 7.49092 38.0949 10.7142 38.0949C13.9375 38.0949 16.6666 35.4176 16.6666 32.1425ZM10.7142 38.0949C5.87782 38.0949 2.38086 42.7069 2.38086 47.6187V48.8092C2.38086 49.6298 2.76337 49.9997 3.57134 49.9997H19.0475C19.8555 49.9997 20.238 49.6298 20.238 48.8092V47.6187C20.238 42.7069 15.5506 38.0949 10.7142 38.0949ZM44.0475 32.1425C44.0475 28.8675 41.3184 26.1902 38.0951 26.1902C34.8719 26.1902 32.1428 28.8675 32.1428 32.1425C32.1428 35.4176 34.8719 38.0949 38.0951 38.0949C41.3184 38.0949 44.0475 35.4176 44.0475 32.1425ZM38.0951 38.0949C33.2588 38.0949 28.5713 42.7069 28.5713 47.6187V48.8092C28.5713 49.6298 28.9538 49.9997 29.7618 49.9997H45.238C46.046 49.9997 46.4285 49.6298 46.4285 48.8092V47.6187C46.4285 42.7069 42.9315 38.0949 38.0951 38.0949ZM34.5237 10.714C35.331 10.714 35.7142 10.3434 35.7142 9.52348C35.7142 8.70361 35.331 8.33301 34.5237 8.33301C33.7164 8.33301 33.3332 8.70361 33.3332 9.52348C33.3332 10.3434 33.7164 10.714 34.5237 10.714ZM40.4761 10.714C41.2834 10.714 41.6666 10.3434 41.6666 9.52348C41.6666 8.70361 41.2834 8.33301 40.4761 8.33301C39.6688 8.33301 39.2856 8.70361 39.2856 9.52348C39.2856 10.3434 39.6688 10.714 40.4761 10.714ZM14.2856 10.714C15.0929 10.714 15.4761 10.3434 15.4761 9.52348C15.4761 8.70361 15.0929 8.33301 14.2856 8.33301C13.4783 8.33301 13.0951 8.70361 13.0951 9.52348C13.0951 10.3434 13.4783 10.714 14.2856 10.714ZM8.33324 10.714C9.14052 10.714 9.52372 10.3434 9.52372 9.52348C9.52372 8.70361 9.14052 8.33301 8.33324 8.33301C7.52596 8.33301 7.14276 8.70361 7.14276 9.52348C7.14276 10.3434 7.52596 10.714 8.33324 10.714Z" fill="url(#paint1_linear_795_17712)"/>
<defs>
<linearGradient id="paint0_linear_795_17712" x1="-22.3721" y1="12.0253" x2="-4.76568" y2="48.9987" gradientUnits="userSpaceOnUse">
<stop stop-color="#FBDA61" stop-opacity="0.2"/>
<stop offset="1" stop-color="#F76B1C" stop-opacity="0.5"/>
</linearGradient>
<linearGradient id="paint1_linear_795_17712" x1="-19.643" y1="29.1663" x2="21.9595" y2="73.146" gradientUnits="userSpaceOnUse">
<stop stop-color="#F4AB00"/>
<stop offset="1" stop-color="#FC5457"/>
</linearGradient>
</defs>
</svg>
