<svg width="50" height="50" viewBox="0 0 50 50" fill="none" xmlns="http://www.w3.org/2000/svg">
<path d="M19.0476 36.9048H30.9524V19.0476H19.0476V36.9048ZM48.8095 26.1905H36.9048C36.0958 26.1905 35.7143 26.5737 35.7143 27.381C35.7143 28.1882 36.0958 29.7619 36.9048 29.7619H48.8095C49.6185 29.7619 50 28.1882 50 27.381C50 26.5737 49.6185 26.1905 48.8095 26.1905ZM13.0952 26.1905H1.19048C0.381492 26.1905 0 26.5737 0 27.381C0 28.1882 0.381492 29.7619 1.19048 29.7619H13.0952C13.9042 29.7619 14.2857 28.1882 14.2857 27.381C14.2857 26.5737 13.9042 26.1905 13.0952 26.1905ZM35.7143 10.7143C35.7143 5.0722 30.654 0 25 0C19.346 0 14.2857 5.0722 14.2857 10.7143V16.6667C14.2857 17.4739 15.8577 17.8571 16.6667 17.8571C17.4757 17.8571 17.8571 17.4739 17.8571 16.6667V10.7143C17.8571 6.68422 20.9614 2.38095 25 2.38095C29.0386 2.38095 32.1429 6.68422 32.1429 10.7143V16.6667C32.1429 17.4739 32.5243 17.8571 33.3333 17.8571C34.1423 17.8571 35.7143 17.4739 35.7143 16.6667V10.7143ZM36.9048 23.8095H45.2381C46.0471 23.8095 47.619 23.4263 47.619 22.619V13.0952C47.619 12.288 46.0471 11.9048 45.2381 11.9048C44.4291 11.9048 44.0476 12.288 44.0476 13.0952V20.2381H36.9048C36.0958 20.2381 35.7143 21.8118 35.7143 22.619C35.7143 23.4263 36.0958 23.8095 36.9048 23.8095ZM13.0952 20.2381H5.95238V13.0952C5.95238 12.288 5.57089 11.9048 4.7619 11.9048C3.95292 11.9048 2.38095 12.288 2.38095 13.0952V22.619C2.38095 23.4263 3.95292 23.8095 4.7619 23.8095H13.0952C13.9042 23.8095 14.2857 23.4263 14.2857 22.619C14.2857 21.8118 13.9042 20.2381 13.0952 20.2381ZM45.2381 32.1429H36.9048C36.0958 32.1429 35.7143 32.5261 35.7143 33.3333C35.7143 34.1406 36.0958 35.7143 36.9048 35.7143H44.0476V42.8571C44.0476 43.6644 44.4291 44.0476 45.2381 44.0476C46.0471 44.0476 47.619 43.6644 47.619 42.8571V33.3333C47.619 32.5261 46.0471 32.1429 45.2381 32.1429ZM13.0952 32.1429H4.7619C3.95292 32.1429 2.38095 32.5261 2.38095 33.3333V42.8571C2.38095 43.6644 3.95292 44.0476 4.7619 44.0476C5.57089 44.0476 5.95238 43.6644 5.95238 42.8571V35.7143H13.0952C13.9042 35.7143 14.2857 34.1406 14.2857 33.3333C14.2857 32.5261 13.9042 32.1429 13.0952 32.1429Z" fill="white"/>
<path d="M19.0476 36.9048H30.9524V19.0476H19.0476V36.9048ZM48.8095 26.1905H36.9048C36.0958 26.1905 35.7143 26.5737 35.7143 27.381C35.7143 28.1882 36.0958 29.7619 36.9048 29.7619H48.8095C49.6185 29.7619 50 28.1882 50 27.381C50 26.5737 49.6185 26.1905 48.8095 26.1905ZM13.0952 26.1905H1.19048C0.381492 26.1905 0 26.5737 0 27.381C0 28.1882 0.381492 29.7619 1.19048 29.7619H13.0952C13.9042 29.7619 14.2857 28.1882 14.2857 27.381C14.2857 26.5737 13.9042 26.1905 13.0952 26.1905ZM35.7143 10.7143C35.7143 5.0722 30.654 0 25 0C19.346 0 14.2857 5.0722 14.2857 10.7143V16.6667C14.2857 17.4739 15.8577 17.8571 16.6667 17.8571C17.4757 17.8571 17.8571 17.4739 17.8571 16.6667V10.7143C17.8571 6.68422 20.9614 2.38095 25 2.38095C29.0386 2.38095 32.1429 6.68422 32.1429 10.7143V16.6667C32.1429 17.4739 32.5243 17.8571 33.3333 17.8571C34.1423 17.8571 35.7143 17.4739 35.7143 16.6667V10.7143ZM36.9048 23.8095H45.2381C46.0471 23.8095 47.619 23.4263 47.619 22.619V13.0952C47.619 12.288 46.0471 11.9048 45.2381 11.9048C44.4291 11.9048 44.0476 12.288 44.0476 13.0952V20.2381H36.9048C36.0958 20.2381 35.7143 21.8118 35.7143 22.619C35.7143 23.4263 36.0958 23.8095 36.9048 23.8095ZM13.0952 20.2381H5.95238V13.0952C5.95238 12.288 5.57089 11.9048 4.7619 11.9048C3.95292 11.9048 2.38095 12.288 2.38095 13.0952V22.619C2.38095 23.4263 3.95292 23.8095 4.7619 23.8095H13.0952C13.9042 23.8095 14.2857 23.4263 14.2857 22.619C14.2857 21.8118 13.9042 20.2381 13.0952 20.2381ZM45.2381 32.1429H36.9048C36.0958 32.1429 35.7143 32.5261 35.7143 33.3333C35.7143 34.1406 36.0958 35.7143 36.9048 35.7143H44.0476V42.8571C44.0476 43.6644 44.4291 44.0476 45.2381 44.0476C46.0471 44.0476 47.619 43.6644 47.619 42.8571V33.3333C47.619 32.5261 46.0471 32.1429 45.2381 32.1429ZM13.0952 32.1429H4.7619C3.95292 32.1429 2.38095 32.5261 2.38095 33.3333V42.8571C2.38095 43.6644 3.95292 44.0476 4.7619 44.0476C5.57089 44.0476 5.95238 43.6644 5.95238 42.8571V35.7143H13.0952C13.9042 35.7143 14.2857 34.1406 14.2857 33.3333C14.2857 32.5261 13.9042 32.1429 13.0952 32.1429Z" fill="url(#paint0_linear_1168_1996)"/>
<path d="M36.9048 14.2855H13.0952C12.2863 14.2855 11.9048 15.8574 11.9048 16.6664V39.2855C11.9048 40.0946 12.2863 41.6664 13.0952 41.6664H36.9048C37.7137 41.6664 38.0952 40.0946 38.0952 39.2855V16.6664C38.0952 15.8574 37.7137 14.2855 36.9048 14.2855ZM26.1905 28.5712V33.3331C26.1905 34.1422 25.809 35.7141 25 35.7141C24.191 35.7141 23.8095 34.1422 23.8095 33.3331V28.5712C22.1045 27.9664 20.2381 26.9096 20.2381 24.9998C20.2381 22.5764 22.5769 20.2379 25 20.2379C27.4231 20.2379 29.7619 22.5764 29.7619 24.9998C29.7619 26.9096 27.8955 27.9664 26.1905 28.5712ZM4.7619 5.95215C2.33876 5.95215 0 8.29065 0 10.7141C0 13.1375 2.33876 14.2855 4.7619 14.2855C7.18505 14.2855 8.33333 13.1375 8.33333 10.7141C8.33333 8.29065 7.18505 5.95215 4.7619 5.95215ZM45.2381 14.2855C47.6612 14.2855 50 13.1375 50 10.7141C50 8.29065 47.6612 5.95215 45.2381 5.95215C42.8149 5.95215 41.6667 8.29065 41.6667 10.7141C41.6667 13.1375 42.8149 14.2855 45.2381 14.2855ZM4.7619 41.6664C2.33876 41.6664 0 42.8145 0 45.2379C0 47.6613 2.33876 49.9998 4.7619 49.9998C7.18505 49.9998 8.33333 47.6613 8.33333 45.2379C8.33333 42.8145 7.18505 41.6664 4.7619 41.6664ZM45.2381 41.6664C42.8149 41.6664 41.6667 42.8145 41.6667 45.2379C41.6667 47.6613 42.8149 49.9998 45.2381 49.9998C47.6612 49.9998 50 47.6613 50 45.2379C50 42.8145 47.6612 41.6664 45.2381 41.6664Z" fill="url(#paint1_linear_1168_1996)"/>
<defs>
<linearGradient id="paint0_linear_1168_1996" x1="-22.3721" y1="22.2469" x2="19.2487" y2="69.4921" gradientUnits="userSpaceOnUse">
<stop stop-color="#FBDA61" stop-opacity="0.2"/>
<stop offset="1" stop-color="#F76B1C" stop-opacity="0.5"/>
</linearGradient>
<linearGradient id="paint1_linear_1168_1996" x1="-25" y1="27.976" x2="18.6961" y2="77.577" gradientUnits="userSpaceOnUse">
<stop stop-color="#F4AB00"/>
<stop offset="1" stop-color="#FC5457"/>
</linearGradient>
</defs>
</svg>
