<svg width="50" height="49" viewBox="0 0 50 49" fill="none" xmlns="http://www.w3.org/2000/svg">
<path d="M9.52362 29.9523C7.13225 29.9523 4.76172 31.1061 4.76172 33.5238C4.76172 35.9414 7.13225 38.2857 9.52362 38.2857C11.915 38.2857 13.0951 35.9414 13.0951 33.5238C13.0951 31.1061 11.915 29.9523 9.52362 29.9523ZM40.476 29.9523C38.0846 29.9523 36.9046 31.1061 36.9046 33.5238C36.9046 35.9414 38.0846 38.2857 40.476 38.2857C42.8674 38.2857 45.2379 35.9414 45.2379 33.5238C45.2379 31.1061 42.8674 29.9523 40.476 29.9523ZM24.9998 0.19043C22.6084 0.19043 20.2379 2.5347 20.2379 4.95233C20.2379 7.36997 22.6084 8.52376 24.9998 8.52376C27.3912 8.52376 29.7617 7.36997 29.7617 4.95233C29.7617 2.5347 27.3912 0.19043 24.9998 0.19043Z" fill="white"/>
<path d="M9.52362 29.9523C7.13225 29.9523 4.76172 31.1061 4.76172 33.5238C4.76172 35.9414 7.13225 38.2857 9.52362 38.2857C11.915 38.2857 13.0951 35.9414 13.0951 33.5238C13.0951 31.1061 11.915 29.9523 9.52362 29.9523ZM40.476 29.9523C38.0846 29.9523 36.9046 31.1061 36.9046 33.5238C36.9046 35.9414 38.0846 38.2857 40.476 38.2857C42.8674 38.2857 45.2379 35.9414 45.2379 33.5238C45.2379 31.1061 42.8674 29.9523 40.476 29.9523ZM24.9998 0.19043C22.6084 0.19043 20.2379 2.5347 20.2379 4.95233C20.2379 7.36997 22.6084 8.52376 24.9998 8.52376C27.3912 8.52376 29.7617 7.36997 29.7617 4.95233C29.7617 2.5347 27.3912 0.19043 24.9998 0.19043Z" fill="url(#paint0_linear_720_17222)"/>
<path d="M17.8571 20.4282H32.1429C32.9525 20.4282 33.3333 20.0563 33.3333 19.2377V16.8568C33.3333 11.9566 29.8466 8.52344 25 8.52344C20.1534 8.52344 16.6667 11.9566 16.6667 16.8568V19.2377C16.6667 20.0563 17.0475 20.4282 17.8571 20.4282ZM8.33333 38.2853C3.48675 38.2853 0 42.909 0 47.8092V48.9996C0 49.8182 0.380808 50.1901 1.19048 50.1901H16.6667C17.4763 50.1901 17.8571 49.8182 17.8571 48.9996V47.8092C17.8571 42.909 13.1799 38.2853 8.33333 38.2853ZM32.1429 35.9044L26.1905 29.952V25.1901C26.1905 24.3715 25.8097 23.9996 25 23.9996C24.1903 23.9996 23.8095 24.3715 23.8095 25.1901V29.952L17.8571 35.9044C17.285 36.4829 17.285 37.7068 17.8571 38.2853C18.4293 38.8638 19.6658 38.8638 20.2381 38.2853L25 33.5234L29.7619 38.2853C30.3341 38.8638 31.5706 38.8638 32.1429 38.2853C32.715 37.7067 32.7151 36.4829 32.1429 35.9044ZM41.6667 38.2853C36.8201 38.2853 32.1429 42.909 32.1429 47.8092V48.9996C32.1429 49.8182 32.5237 50.1901 33.3333 50.1901H48.8095C49.6192 50.1901 50 49.8182 50 48.9996V47.8092C50 42.909 46.5132 38.2853 41.6667 38.2853Z" fill="url(#paint1_linear_720_17222)"/>
<defs>
<linearGradient id="paint0_linear_720_17222" x1="-13.349" y1="19.431" x2="22.8703" y2="57.914" gradientUnits="userSpaceOnUse">
<stop stop-color="#FBDA61" stop-opacity="0.2"/>
<stop offset="1" stop-color="#F76B1C" stop-opacity="0.5"/>
</linearGradient>
<linearGradient id="paint1_linear_720_17222" x1="-25" y1="29.3568" x2="15.9836" y2="78.5371" gradientUnits="userSpaceOnUse">
<stop stop-color="#F4AB00"/>
<stop offset="1" stop-color="#FC5457"/>
</linearGradient>
</defs>
</svg>
